<?xml version="1.0" encoding="UTF-8"?>
<svg id="Capa_1" data-name="Capa 1" xmlns="http://www.w3.org/2000/svg" viewBox="0 0 1080 1080">
  <defs>
    <style>
      .cls-1 {
        fill: #f2f2f2;
      }
    </style>
  </defs>
  <rect class="cls-1" x="25.9" y="25.91" width="1028.19" height="108.23" rx="40.59" ry="40.59"/>
  <path class="cls-1" d="M684.82,826.73c18.64-12.06,31.05-32.93,31.05-56.74v-13.53h-351.75v13.53c0,23.81,12.42,44.68,31.05,56.73l-82.9,189.48c-6,13.69.25,29.62,13.95,35.62,13.55,5.99,29.69-.37,35.63-13.95,0,0,87.6-200.24,87.6-200.24h63.49v162.35c0,14.96,12.12,27.06,27.06,27.06s27.06-12.1,27.06-27.06v-162.35h63.49l87.6,200.24c5.91,13.54,22.15,19.92,35.62,13.95,13.71-6,19.95-21.93,13.95-35.62l-82.9-189.48Z"/>
  <path class="cls-1" d="M255.89,580.59c14.92,0,27.06-12.14,27.06-27.06s-12.14-27.06-27.06-27.06-27.06,12.14-27.06,27.06,12.14,27.06,27.06,27.06Z"/>
  <path class="cls-1" d="M824.11,364.13c14.93,0,27.06-12.14,27.06-27.06s-12.13-27.06-27.06-27.06-27.06,12.14-27.06,27.06,12.13,27.06,27.06,27.06Z"/>
  <path class="cls-1" d="M66.49,661.77c0,22.42,18.17,40.59,40.59,40.59h865.85c22.42,0,40.59-18.17,40.59-40.59V188.26H66.49v473.51ZM824.11,255.9c44.76,0,81.17,36.41,81.17,81.17s-36.41,81.17-81.17,81.17-81.17-36.41-81.17-81.17,36.41-81.17,81.17-81.17ZM729.4,515.27l14.69-14.69c10.56-10.57,27.69-10.58,38.26,0,10.58,10.57,10.57,27.7,0,38.26l-14.69,14.69,14.69,14.68c10.58,10.58,10.57,27.7,0,38.27s-27.69,10.57-38.26,0l-14.69-14.69-14.69,14.69c-10.57,10.57-27.69,10.57-38.26,0-10.58-10.58-10.58-27.69,0-38.27l14.69-14.68-14.69-14.69c-10.58-10.57-10.57-27.7,0-38.26,10.57-10.57,27.69-10.58,38.26,0l14.69,14.69ZM189.41,322.39c-10.57-10.57-10.57-27.7,0-38.26,10.57-10.57,27.7-10.57,38.26,0l14.69,14.69,14.69-14.69c10.56-10.57,27.7-10.57,38.26,0,10.57,10.57,10.57,27.7,0,38.26l-14.69,14.69,14.69,14.68c10.57,10.57,10.57,27.7,0,38.27s-27.7,10.57-38.26,0l-14.69-14.69-14.69,14.69c-10.56,10.57-27.7,10.57-38.26,0-10.57-10.57-10.57-27.7,0-38.27l14.69-14.68-14.69-14.69ZM255.89,472.36c35.23,0,64.98,22.69,76.19,54.12h153.8c14.92,0,27.06-12.14,27.06-27.06s-12.14-27.06-27.06-27.06h-54.12c-44.76,0-81.17-36.41-81.17-81.17s36.41-81.17,81.17-81.17h178.2l-7.93-7.93c-10.57-10.57-10.57-27.69,0-38.26,10.57-10.57,27.69-10.57,38.26,0l54.12,54.12c10.57,10.57,10.57,27.69,0,38.26l-54.12,54.12c-10.5,10.5-27.69,10.57-38.26,0-10.57-10.57-10.57-27.69,0-38.26l7.93-7.93h-178.2c-14.92,0-27.06,12.14-27.06,27.06s12.14,27.06,27.06,27.06h54.12c44.76,0,81.17,36.41,81.17,81.17s-36.41,81.17-81.17,81.17h-153.8c-11.21,31.43-40.96,54.12-76.19,54.12-44.76,0-81.17-36.41-81.17-81.17s36.41-81.17,81.17-81.17Z"/>
</svg>